<svg xmlns="http://www.w3.org/2000/svg" xmlns:xlink="http://www.w3.org/1999/xlink" viewBox="0 0 7178.77 2377.36"><defs><style>.cls-1,.cls-2,.cls-3{fill:none;}.cls-14,.cls-17,.cls-18,.cls-2,.cls-21,.cls-24{fill-rule:evenodd;}.cls-3,.cls-4,.cls-5{clip-rule:evenodd;}.cls-18,.cls-20,.cls-4{fill:#6c6c93;}.cls-21,.cls-5{fill:#525474;}.cls-6{clip-path:url(#clip-path);}.cls-7{fill:#494a63;}.cls-8{clip-path:url(#clip-path-2);}.cls-9{clip-path:url(#clip-path-3);}.cls-10{clip-path:url(#clip-path-4);}.cls-11{clip-path:url(#clip-path-5);}.cls-12{clip-path:url(#clip-path-6);}.cls-13{fill:#424354;}.cls-14,.cls-16{fill:#9f85ff;}.cls-15{clip-path:url(#clip-path-7);}.cls-17{fill:#545479;}.cls-19{clip-path:url(#clip-path-8);}.cls-22{clip-path:url(#clip-path-9);}.cls-23{clip-path:url(#clip-path-10);}.cls-24{fill:url(#Gradiente_sem_nome_364);}</style><clipPath id="clip-path"><path class="cls-1" d="M2731.64,1794.28h0c-165.91,0-300.41-134.5-300.41-300.41V624.31h0c165.92,0,300.41,134.49,300.41,300.4Z"/></clipPath><clipPath id="clip-path-2"><path class="cls-1" d="M3257.09,1794.28h0c-164.7,0-298.21-133.51-298.21-298.21V624.31H3031l98.31,113.6a524.49,524.49,0,0,1,353.95-136.55q107,0,202.1,40.95t166,112.54q71,71.56,112,167.12t41,203.75v370.33c0,164.71-133.53,298.23-298.24,298.23h0V1125.72a219.41,219.41,0,0,0-17.46-86.86,225.22,225.22,0,0,0-119.09-119.6,215,215,0,0,0-86.29-17.49,225.59,225.59,0,0,0-88.48,17.49,222.2,222.2,0,0,0-120.18,119.6,219.08,219.08,0,0,0-17.48,86.86Z"/></clipPath><clipPath id="clip-path-3"><path class="cls-1" d="M4858.59,1794.28H4176.91c0-164.11,133-297.15,297.15-297.15h384.53q32.47,0,55.16-24.68a73.17,73.17,0,0,0,19.12-49.7q0-31.57-21.85-41.4t-52.43-9.83H4548.32q-77.55,0-145.29-29.51t-118-80.29q-50.27-50.79-79.2-118.52t-28.95-145.29q0-77.58,28.95-145.31t79.2-118q50.22-50.24,118-79.21t145.29-28.94h604.13c0,164.11-133,297.15-297.15,297.15H4550.18c-19.3,0-38.39,6.78-52.43,20q-23.73,22.4-23.69,54.25,0,31.7,21.83,54.07t52.43,22.4h310.27q76.44,0,144.2,25.66t118,71.57q50.23,45.86,79.75,110.32T5230,1422.84q0,77.6-29.49,144.75a388,388,0,0,1-79.75,118q-50.25,50.79-118,79.75T4858.59,1794.28Z"/></clipPath><clipPath id="clip-path-4"><path class="cls-1" d="M6030.76,1794.28H5349.08c0-164.11,133-297.15,297.15-297.15h384.53q32.47,0,55.16-24.68a73.23,73.23,0,0,0,19.13-49.7q0-31.57-21.86-41.4t-52.43-9.83H5720.5q-77.55,0-145.29-29.51t-118-80.29Q5407,1210.93,5378,1143.2t-28.95-145.29q0-77.58,28.95-145.31t79.2-118q50.22-50.24,118-79.21t145.29-28.94h604.12c0,164.11-133,297.15-297.15,297.15H5722.36c-19.31,0-38.4,6.78-52.44,20q-23.73,22.4-23.69,54.25,0,31.7,21.84,54.07t52.43,22.4h310.26q76.44,0,144.2,25.66t118,71.57q50.22,45.86,79.74,110.32t29.49,140.91q0,77.6-29.49,144.75a388.18,388.18,0,0,1-79.74,118q-50.26,50.79-118,79.75T6030.76,1794.28Z"/></clipPath><clipPath id="clip-path-5"><path class="cls-1" d="M6861,1794.28h0c-165.93,0-300.44-134.51-300.44-300.43V624.31h0c165.93,0,300.44,134.5,300.44,300.43Z"/></clipPath><clipPath id="clip-path-6"><path class="cls-3" d="M1032.86,297.58s-80.37-80.37-205.76-51.44-218.63,212.2-453.33,135c168.78,325.69,509.07,131.2,659.09-83.6"/></clipPath><clipPath id="clip-path-7"><path class="cls-3" d="M1574.68,354.59s471.46-23.58,389,418.46c0,0-70.7-135.57-218.06-168S1445,675.8,1353.63,896.82s-117.88-170.93-117.88-170.93,203.34-303.53,338.93-371.3"/></clipPath><clipPath id="clip-path-8"><polygon class="cls-4" points="1050.52 2176.91 1815.48 1734.28 1711.91 1515.51 1050.52 2176.91"/></clipPath><clipPath id="clip-path-9"><polygon class="cls-5" points="997.05 2176.91 232.09 1734.28 335.67 1515.51 997.05 2176.91"/></clipPath><clipPath id="clip-path-10"><path class="cls-3" d="M1574.68,354.59s-328.63,457.4-2.85,1228.06l-548,548h0L485.84,1592.75c8.71-192.13,80.31-775.69,230.61-1026.19,232.93-388.21,621.14-482.2,858.23-212"/></clipPath><linearGradient id="Gradiente_sem_nome_364" x1="1030.47" y1="980.04" x2="995" y2="-108.23" gradientUnits="userSpaceOnUse"><stop offset="0" stop-color="#525474"/><stop offset="1" stop-color="#333"/></linearGradient></defs><g id="Camada_3" data-name="Camada 3"><g class="cls-6"><path class="cls-7" d="M2731.64,1794.28h0c-165.91,0-300.41-134.5-300.41-300.41V624.31h0c165.92,0,300.41,134.49,300.41,300.4Z"/></g><g class="cls-8"><path class="cls-7" d="M3257.09,1794.28h0c-164.7,0-298.21-133.51-298.21-298.21V624.31H3031l98.31,113.6a524.49,524.49,0,0,1,353.95-136.55q107,0,202.1,40.95t166,112.54q71,71.56,112,167.12t41,203.75v370.33c0,164.71-133.53,298.23-298.24,298.23h0V1125.72a219.41,219.41,0,0,0-17.46-86.86,225.22,225.22,0,0,0-119.09-119.6,215,215,0,0,0-86.29-17.49,225.59,225.59,0,0,0-88.48,17.49,222.2,222.2,0,0,0-120.18,119.6,219.08,219.08,0,0,0-17.48,86.86Z"/></g><g class="cls-9"><path class="cls-7" d="M4858.59,1794.28H4176.91c0-164.11,133-297.15,297.15-297.15h384.53q32.47,0,55.16-24.68a73.17,73.17,0,0,0,19.12-49.7q0-31.57-21.85-41.4t-52.43-9.83H4548.32q-77.55,0-145.29-29.51t-118-80.29q-50.27-50.79-79.2-118.52t-28.95-145.29q0-77.58,28.95-145.31t79.2-118q50.22-50.24,118-79.21t145.29-28.94h604.13c0,164.11-133,297.15-297.15,297.15H4550.18c-19.3,0-38.39,6.78-52.43,20q-23.73,22.4-23.69,54.25,0,31.7,21.83,54.07t52.43,22.4h310.27q76.44,0,144.2,25.66t118,71.57q50.23,45.86,79.75,110.32T5230,1422.84q0,77.6-29.49,144.75a388,388,0,0,1-79.75,118q-50.25,50.79-118,79.75T4858.59,1794.28Z"/></g><g class="cls-10"><path class="cls-7" d="M6030.76,1794.28H5349.08c0-164.11,133-297.15,297.15-297.15h384.53q32.47,0,55.16-24.68a73.23,73.23,0,0,0,19.13-49.7q0-31.57-21.86-41.4t-52.43-9.83H5720.5q-77.55,0-145.29-29.51t-118-80.29Q5407,1210.93,5378,1143.2t-28.95-145.29q0-77.58,28.95-145.31t79.2-118q50.22-50.24,118-79.21t145.29-28.94h604.12c0,164.11-133,297.15-297.15,297.15H5722.36c-19.31,0-38.4,6.78-52.44,20q-23.73,22.4-23.69,54.25,0,31.7,21.84,54.07t52.43,22.4h310.26q76.44,0,144.2,25.66t118,71.57q50.22,45.86,79.74,110.32t29.49,140.91q0,77.6-29.49,144.75a388.18,388.18,0,0,1-79.74,118q-50.26,50.79-118,79.75T6030.76,1794.28Z"/></g><g class="cls-11"><path class="cls-7" d="M6861,1794.28h0c-165.93,0-300.44-134.51-300.44-300.43V624.31h0c165.93,0,300.44,134.5,300.44,300.43Z"/></g><g class="cls-12"><rect class="cls-13" x="373.77" y="217.21" width="659.08" height="489.65"/></g><path class="cls-14" d="M1032.86,297.58s-80.37-80.37-205.76-51.44-218.63,212.2-453.33,135c1.23,2.38,2.52,4.64,3.77,7C653.72,553.61,790,380,884,329.39c93.64-50.42,147.7-31,148.16-30.86Z"/><g class="cls-15"><rect class="cls-16" x="1235.75" y="331.01" width="810.4" height="786.83"/></g><path class="cls-17" d="M1892.26,610.45c-112.48-86.12-240.77-79.39-344.91-48.25a646.47,646.47,0,0,0-75,27.76c8.25-29.24,17.09-55.88,26-79.86,22.59-4.56,45.71-8.41,68.85-11.19,71.61-8.56,143.3-6.71,199.62,17.13s96.56,58.32,125.46,94.41"/><polygon class="cls-18" points="1050.52 2176.91 1815.48 1734.28 1711.91 1515.51 1050.52 2176.91"/><g class="cls-19"><rect class="cls-20" x="1050.52" y="1515.51" width="764.96" height="661.4"/></g><polygon class="cls-21" points="997.05 2176.91 232.09 1734.28 335.67 1515.51 997.05 2176.91"/><g class="cls-22"><rect class="cls-20" x="232.09" y="1515.51" width="764.96" height="661.4"/></g><polygon class="cls-17" points="997.05 2176.91 283.88 1624.89 232.09 1734.28 997.05 2176.91"/><polygon class="cls-17" points="1050.52 2176.91 1763.69 1624.89 1815.48 1734.28 1050.52 2176.91"/><g class="cls-23"><g class="cls-23"><path class="cls-24" d="M1574.68,354.59s-328.63,457.4-2.85,1228.06l-548,548h0L485.84,1592.75c8.71-192.13,80.31-775.69,230.61-1026.19,232.93-388.21,621.14-482.2,858.23-212"/></g><path class="cls-16" d="M858.1,2034.94V1765.85a82.76,82.76,0,1,0-99.16,0v269.09l101.64,89.24h99.16Z"/><path class="cls-16" d="M1072.06,2034.94V1639.61a82.76,82.76,0,1,0-99.16,0v395.33l101.64,89.24h99.16Z"/><path class="cls-16" d="M1274.58,2034.94V1470.66a82.76,82.76,0,1,0-99.16,0v564.28l101.64,89.24h99.16Z"/></g></g></svg>
